<mxfile host="app.diagrams.net" modified="2023-03-08T15:21:33.803Z" agent="5.0 (Windows NT 6.1; Win64; x64) AppleWebKit/537.36 (KHTML, like Gecko) Chrome/100.0.4896.127 Safari/537.36" etag="xDjfBA5LWFLe8kuvNvRD" version="21.0.2" type="github">
  <diagram id="E01g1_I6Vo92YfVn2vzd" name="第 1 页">
    <mxGraphModel dx="2607" dy="1458" grid="1" gridSize="10" guides="1" tooltips="1" connect="1" arrows="1" fold="1" page="1" pageScale="1" pageWidth="400000" pageHeight="300000" math="0" shadow="0">
      <root>
        <mxCell id="0" />
        <mxCell id="1" parent="0" />
      </root>
    </mxGraphModel>
  </diagram>
</mxfile>
